<svg xmlns="http://www.w3.org/2000/svg" width="50" height="50" fill="none">
  <path fill="#40B3E0" d="M25 0a25 25 0 100 50 25 25 0 000-50z"/>
  <path fill="#fff" d="M37.16 14.38L32.7 36.9s-.63 1.57-2.34.82l-10.3-7.9L16.3 28 10 25.87s-.97-.34-1.06-1.1c-.1-.74 1.09-1.15 1.09-1.15L35.1 13.8s2.06-.9 2.06.6"/>
  <path fill="#D2E5F1" d="M19.26 36.64s-.3-.03-.67-1.21C18.2 34.24 16.3 28 16.3 28l15.14-9.62s.87-.53.84 0c0 0 .16.1-.3.53l-11.9 10.7"/>
  <path fill="#B5CFE4" d="M24 32.83l-4.07 3.72s-.32.24-.67.1l.78-6.91"/>
</svg>
