<svg xmlns="http://www.w3.org/2000/svg" width="48" height="48" fill="none">
  <defs/>
  <path fill="#CFD8DC" d="M5 38V14h38v24c0 2.2-1.8 4-4 4H9c-2.2 0-4-1.8-4-4z"/>
  <path fill="#F44336" d="M43 10v6H5v-6c0-2.2 1.8-4 4-4h30c2.2 0 4 1.8 4 4z"/>
  <path fill="#B71C1C" d="M33 13a3 3 0 100-6 3 3 0 000 6zM15 13a3 3 0 100-6 3 3 0 000 6z"/>
  <path fill="#B0BEC5" d="M33 3a2 2 0 00-2 2v5c0 1.1.9 2 2 2a2 2 0 002-2V5a2 2 0 00-2-2zM15 3a2 2 0 00-2 2v5c0 1.1.9 2 2 2a2 2 0 002-2V5a2 2 0 00-2-2z"/>
  <path fill="#90A4AE" d="M13 20h4v4h-4v-4zM19 20h4v4h-4v-4zM25 20h4v4h-4v-4zM31 20h4v4h-4v-4zM13 26h4v4h-4v-4zM19 26h4v4h-4v-4zM25 26h4v4h-4v-4zM31 26h4v4h-4v-4zM13 32h4v4h-4v-4zM19 32h4v4h-4v-4zM25 32h4v4h-4v-4zM31 32h4v4h-4v-4z"/>
</svg>
