<svg xmlns="http://www.w3.org/2000/svg" width="512" height="512">
  <defs/>
  <path fill="#fee274" d="M450 139.15v30l-420 60c-16.5 0-30-73.5-30-90 0-9.3 4.2-17.7 11.1-23.1 5.1-4.5 11.7-6.9 18.9-6.9h390c16.5 0 30 13.5 30 30z"/>
  <path fill="#fabe2c" d="M420 109.15H225v92.14l225-32.14v-30c0-16.5-13.5-30-30-30z"/>
  <path fill="#8cd96b" d="M411.3 199.15H38.7l129.9-129.9 56.4 9.9 56.4-9.9z"/>
  <path fill="#5ab267" d="M411.3 199.15L281.4 69.25l-56.4 9.9v120z"/>
  <path fill="#575f64" d="M390 289.15v90h92a30 30 0 0130 30v90H45a45 45 0 01-45-45v-315c0 16.5 13.5 30 30 30h482v90a30 30 0 01-30 30z"/>
  <path fill="#5ab267" d="M225 12.85l-56.4 56.4c8.1 23.1 30.6 39.9 56.4 39.9s48.3-16.8 56.4-39.9z"/>
  <path fill="#288c64" d="M281.4 69.25L225 12.85v96.3c25.8 0 48.3-16.8 56.4-39.9z"/>
  <path fill="#474f54" d="M225 499.15h287v-90a30 30 0 00-30-30h-92v-90h92a30 30 0 0030-30v-90H225z"/>
  <path fill="#32393f" d="M512 409.15H360v-150h152z"/>
  <path fill="#fabe2c" d="M330 319.15h90v30h-90z"/>
</svg>
