<svg width="48" height="48" viewBox="0 0 48 48" fill="none" xmlns="http://www.w3.org/2000/svg">
<path d="M30.4948 32.22L33.8548 28.86C34.3074 28.413 34.88 28.1071 35.503 27.9793C36.1261 27.8515 36.7729 27.9073 37.3648 28.14L41.4598 29.775C42.058 30.0178 42.571 30.4322 42.934 30.9661C43.2971 31.5 43.4939 32.1294 43.4998 32.775V40.275C43.4963 40.7141 43.404 41.1481 43.2284 41.5506C43.0528 41.9532 42.7976 42.316 42.4781 42.6173C42.1585 42.9186 41.7813 43.1521 41.3692 43.3038C40.957 43.4555 40.5184 43.5222 40.0798 43.5C11.3848 41.715 5.59483 17.415 4.49983 8.11497C4.449 7.65827 4.49545 7.19599 4.63611 6.75853C4.77677 6.32108 5.00846 5.91836 5.31594 5.57687C5.62341 5.23539 5.99971 4.96288 6.42007 4.77727C6.84043 4.59165 7.29533 4.49715 7.75483 4.49997H14.9998C15.6463 4.50188 16.2775 4.69717 16.8121 5.06071C17.3467 5.42426 17.7604 5.93943 17.9998 6.53997L19.6348 10.635C19.8752 11.2246 19.9365 11.8719 19.8112 12.4962C19.6858 13.1204 19.3792 13.6939 18.9298 14.145L15.5698 17.505C15.5698 17.505 17.5048 30.6 30.4948 32.22Z" fill="black"/>
</svg>
