<svg width="48" height="48" viewBox="0 0 48 48" fill="none" xmlns="http://www.w3.org/2000/svg">
<path d="M38.5 44.6L34.5 40.6L36.6 38.5L40.6 42.5C41.2 43.1 41.2 44 40.6 44.6C40.1 45.1 39.1 45.1 38.5 44.6Z" fill="#37474F"/>
<path d="M9.5 44.6L13.5 40.6L11.4 38.5L7.4 42.5C6.8 43.1 6.8 44 7.4 44.6C7.9 45.1 8.9 45.1 9.5 44.6Z" fill="#37474F"/>
<path d="M24 44C35.0457 44 44 35.0457 44 24C44 12.9543 35.0457 4 24 4C12.9543 4 4 12.9543 4 24C4 35.0457 12.9543 44 24 44Z" fill="#C62828"/>
<path d="M24 40C32.8366 40 40 32.8366 40 24C40 15.1634 32.8366 8 24 8C15.1634 8 8 15.1634 8 24C8 32.8366 15.1634 40 24 40Z" fill="#EEEEEE"/>
<path d="M15.096 33.48L14.53 32.914L23.721 23.723L24.287 24.288L15.096 33.48Z" fill="#E53935"/>
<path d="M23 11H25V24H23V11Z" fill="black"/>
<path d="M31.285 29.654L29.66 31.28L23.156 24.776L24.782 23.149L31.285 29.654Z" fill="black"/>
<path d="M24 26C25.1046 26 26 25.1046 26 24C26 22.8954 25.1046 22 24 22C22.8954 22 22 22.8954 22 24C22 25.1046 22.8954 26 24 26Z" fill="black"/>
<path d="M24 25C24.5523 25 25 24.5523 25 24C25 23.4477 24.5523 23 24 23C23.4477 23 23 23.4477 23 24C23 24.5523 23.4477 25 24 25Z" fill="#C62828"/>
<path d="M22 1H26V4H22V1Z" fill="#37474F"/>
<path d="M44.4 16.2C46.9 12.7 46.5 7.79999 43.4 4.69999C40.3 1.59999 35.4 1.19999 31.9 3.69999L44.4 16.2Z" fill="#37474F"/>
<path d="M3.6 16.2C1.1 12.7 1.5 7.79999 4.6 4.69999C7.7 1.59999 12.6 1.19999 16.1 3.69999L3.6 16.2Z" fill="#37474F"/>
</svg>
