<svg xmlns="http://www.w3.org/2000/svg" width="62" height="63" fill="none">
  <g filter="url(#filter0_f)">
    <path fill="#000" fill-opacity=".24" d="M6 56.21l3.53-12.89A24.92 24.92 0 0148.72 13.3c4.7 4.7 7.3 10.96 7.28 17.6a24.92 24.92 0 01-24.9 24.9h-.01a24.9 24.9 0 01-11.9-3.04L6 56.21zm13.81-7.97l.75.46a20.74 20.74 0 0010.53 2.88h.01a20.7 20.7 0 0014.63-35.32A20.71 20.71 0 0013.56 41.9l.5.79-2.1 7.63 7.85-2.07z"/>
  </g>
  <path fill="url(#paint0_linear)" d="M7.13 54.88l3.37-12.3a23.73 23.73 0 1120.56 11.9h-.01c-3.98 0-7.88-1.01-11.34-2.9l-12.58 3.3z"/>
  <path fill="#fff" d="M6.27 55.74l3.49-12.73a24.61 24.61 0 0138.7-29.66 24.61 24.61 0 01-17.4 41.96h-.01a24.6 24.6 0 01-11.76-2.98L6.27 55.74zm13.64-7.87l.74.45a20.45 20.45 0 0024.86-32.03 20.46 20.46 0 00-31.77 25.3l.49.79-2.07 7.53 7.75-2.04z"/>
  <path fill="#fff" d="M24.92 20.44c-.46-1.03-.95-1.05-1.38-1.06l-1.18-.01c-.41 0-1.07.15-1.64.76-.57.62-2.14 2.1-2.14 5.13 0 3.02 2.2 5.94 2.5 6.35.31.42 4.26 6.82 10.5 9.28 5.18 2.05 6.25 1.64 7.36 1.53 1.14-.1 3.64-1.48 4.15-2.92.51-1.44.51-2.66.36-2.92-.16-.26-.57-.41-1.18-.72-.61-.3-3.63-1.8-4.2-2-.56-.22-.98-.31-1.38.3-.4.61-1.59 2-1.94 2.4-.36.42-.72.47-1.33.16-.62-.3-2.6-.96-4.94-3.05a18.37 18.37 0 01-3.42-4.26c-.36-.61-.04-.94.27-1.25.27-.27.61-.72.92-1.07.3-.36.41-.61.61-1.03.2-.41.1-.76-.04-1.07-.16-.3-1.36-3.34-1.9-4.55z"/>
  <defs>
    <linearGradient id="paint0_linear" x1="30.96" x2="30.96" y1="54.88" y2="7" gradientUnits="userSpaceOnUse">
      <stop stop-color="#20B038"/>
      <stop offset="1" stop-color="#60D66A"/>
    </linearGradient>
    <filter id="filter0_f" width="62" height="62.21" x="0" y="0" color-interpolation-filters="sRGB" filterUnits="userSpaceOnUse">
      <feFlood flood-opacity="0" result="BackgroundImageFix"/>
      <feBlend in="SourceGraphic" in2="BackgroundImageFix" result="shape"/>
      <feGaussianBlur result="effect1_foregroundBlur" stdDeviation="3"/>
    </filter>
  </defs>
</svg>
