<svg width="50" height="50" viewBox="0 0 50 50" fill="none" xmlns="http://www.w3.org/2000/svg">
<path d="M25 0C11.1928 0 0 11.1928 0 25C0 38.8072 11.1928 50 25 50C38.8072 50 50 38.8072 50 25C50 11.1928 38.8072 0 25 0Z" fill="#40B3E0"/>
<path d="M37.1646 14.381L32.6991 36.8945C32.6991 36.8945 32.0747 38.4558 30.3573 37.7064L20.0531 29.8064L16.3062 27.9955L9.99876 25.8721C9.99876 25.8721 9.03079 25.5287 8.93704 24.7793C8.84329 24.0299 10.03 23.624 10.03 23.624L35.1034 13.7881C35.1034 13.7881 37.1644 12.8826 37.1644 14.3814" fill="white"/>
<path d="M19.2614 36.6413C19.2614 36.6413 18.9606 36.6132 18.5856 35.4265C18.2112 34.24 16.3063 27.9951 16.3063 27.9951L31.4504 18.3779C31.4504 18.3779 32.3248 17.847 32.2936 18.3779C32.2936 18.3779 32.4496 18.4716 31.9811 18.9087C31.5129 19.346 20.0846 29.6189 20.0846 29.6189" fill="#D2E5F1"/>
<path d="M24.0039 32.8347L19.9284 36.5507C19.9284 36.5507 19.6096 36.7925 19.2612 36.641L20.0416 29.7386" fill="#B5CFE4"/>
</svg>
