<svg width="62" height="63" viewBox="0 0 62 63" fill="none" xmlns="http://www.w3.org/2000/svg">
<g filter="url(#filter0_f)">
<path d="M6 56.2148L9.53296 43.3239C7.36067 39.5519 6.20285 35.267 6.2148 30.8866C6.2148 17.1601 17.3868 6 31.1134 6C37.7736 6 44.0281 8.59015 48.719 13.2929C53.4218 17.9956 56.0119 24.2501 56 30.8986C56 44.6249 44.8277 55.7852 31.1014 55.7852H31.0895C26.9238 55.7852 22.8297 54.7348 19.1892 52.7533L6 56.2148ZM19.8099 48.2415L20.5618 48.6951C23.7369 50.581 27.3773 51.5716 31.0895 51.5835H31.1014C42.5004 51.5835 51.7864 42.3093 51.7864 30.8986C51.7864 25.3721 49.638 20.18 45.7349 16.2648C41.8319 12.3499 36.6277 10.2015 31.1014 10.2015C19.6905 10.2015 10.4043 19.4757 10.4043 30.8864C10.4043 34.7896 11.4904 38.5971 13.5674 41.8916L14.0567 42.6793L11.968 50.3064L19.8099 48.2415Z" fill="black" fill-opacity="0.24"/>
</g>
<path d="M7.12939 54.8842L10.5007 42.5893C8.42186 38.9831 7.32829 34.8934 7.32978 30.7309C7.32978 17.6463 17.9861 7.00191 31.0586 7.00191C37.4123 7.00191 43.3653 9.47735 47.8446 13.9566C52.3239 18.4361 54.7878 24.4008 54.7878 30.7427C54.7878 43.8271 44.1314 54.4714 31.0588 54.4714H31.047C27.0744 54.4714 23.1726 53.4695 19.707 51.5835L7.12939 54.8844V54.8842Z" fill="url(#paint0_linear)"/>
<path d="M6.26898 55.7446L9.75807 43.0138C7.61276 39.2889 6.46916 35.057 6.4811 30.7309C6.4811 17.1749 17.5145 6.15322 31.0707 6.15322C37.6482 6.15322 43.8248 8.71104 48.4577 13.3555C53.1019 17.9999 55.66 24.1768 55.6482 30.7427C55.6482 44.2987 44.6148 55.3203 31.0586 55.3203H31.0471C26.941 55.3187 22.9007 54.2894 19.2945 52.3261L6.26898 55.7448V55.7446ZM19.9074 47.8703L20.65 48.3183C23.7857 50.1808 27.3809 51.1593 31.0471 51.171H31.0588C42.3161 51.171 51.4871 42.0119 51.4871 30.7427C51.4871 25.2849 49.3653 20.1572 45.5107 16.2908C41.656 12.4244 36.5165 10.3026 31.0588 10.3026C19.7896 10.3026 10.6187 19.4617 10.6187 30.7309C10.6187 34.5856 11.6913 38.3459 13.7425 41.5992L14.2258 42.3772L12.1629 49.9096L19.9074 47.8703Z" fill="white"/>
<path d="M24.9173 20.4401C24.4575 19.4145 23.9741 19.3909 23.5381 19.3791C23.1845 19.3674 22.772 19.3674 22.3593 19.3674C21.9468 19.3674 21.2866 19.5206 20.7208 20.1335C20.1549 20.7466 18.5753 22.2318 18.5753 25.2615C18.5753 28.279 20.7797 31.2023 21.0862 31.6148C21.3926 32.0275 25.3416 38.4283 31.5773 40.892C36.764 42.9432 37.825 42.5304 38.9448 42.4244C40.0764 42.3183 42.5755 40.9391 43.0941 39.501C43.6009 38.0629 43.6009 36.8369 43.4477 36.5777C43.2945 36.3182 42.882 36.1651 42.2689 35.8585C41.656 35.5521 38.6383 34.0668 38.0726 33.8547C37.5067 33.6425 37.0942 33.5482 36.6934 34.1611C36.2807 34.774 35.1021 36.1532 34.7483 36.5659C34.3947 36.9784 34.0293 37.0256 33.4162 36.7191C32.8033 36.4127 30.823 35.7642 28.4773 33.666C26.6502 32.0393 25.4124 30.0235 25.0586 29.4106C24.705 28.7977 25.0234 28.4674 25.3298 28.1612C25.6009 27.8899 25.9427 27.442 26.2494 27.0884C26.5558 26.7348 26.6619 26.4755 26.8623 26.0628C27.0627 25.6503 26.9683 25.2967 26.8151 24.9903C26.6619 24.6836 25.4596 21.6542 24.9173 20.4401Z" fill="white"/>
<defs>
<filter id="filter0_f" x="0" y="0" width="62" height="62.2148" filterUnits="userSpaceOnUse" color-interpolation-filters="sRGB">
<feFlood flood-opacity="0" result="BackgroundImageFix"/>
<feBlend mode="normal" in="SourceGraphic" in2="BackgroundImageFix" result="shape"/>
<feGaussianBlur stdDeviation="3" result="effect1_foregroundBlur"/>
</filter>
<linearGradient id="paint0_linear" x1="30.9576" y1="54.881" x2="30.9576" y2="6.99904" gradientUnits="userSpaceOnUse">
<stop stop-color="#20B038"/>
<stop offset="1" stop-color="#60D66A"/>
</linearGradient>
</defs>
</svg>
